<?xml version="1.0" encoding="UTF-8" standalone="no"?><svg xmlns="http://www.w3.org/2000/svg" xmlns:xlink="http://www.w3.org/1999/xlink" contentScriptType="application/ecmascript" contentStyleType="text/css" height="340px" preserveAspectRatio="none" style="width:453px;height:340px;" version="1.1" viewBox="0 0 453 340" width="453px" zoomAndPan="magnify"><defs><filter height="300%" id="fhr44p2pa6zfy" width="300%" x="-1" y="-1"><feGaussianBlur result="blurOut" stdDeviation="2.0"/><feColorMatrix in="blurOut" result="blurOut2" type="matrix" values="0 0 0 0 0 0 0 0 0 0 0 0 0 0 0 0 0 0 .4 0"/><feOffset dx="4.0" dy="4.0" in="blurOut2" result="blurOut3"/><feBlend in="SourceGraphic" in2="blurOut3" mode="normal"/></filter></defs><g><text fill="#000000" font-family="sans-serif" font-size="14" font-weight="bold" lengthAdjust="spacingAndGlyphs" textLength="257" x="99.25" y="22.9951">"Messages - Sequence Diagram"</text><line style="stroke: #A80036; stroke-width: 1.0; stroke-dasharray: 5.0,5.0;" x1="27" x2="27" y1="116.5938" y2="253.125"/><line style="stroke: #A80036; stroke-width: 1.0; stroke-dasharray: 5.0,5.0;" x1="129.5" x2="129.5" y1="116.5938" y2="253.125"/><line style="stroke: #A80036; stroke-width: 1.0; stroke-dasharray: 5.0,5.0;" x1="224.5" x2="224.5" y1="116.5938" y2="253.125"/><line style="stroke: #A80036; stroke-width: 1.0; stroke-dasharray: 5.0,5.0;" x1="313.5" x2="313.5" y1="116.5938" y2="253.125"/><line style="stroke: #A80036; stroke-width: 1.0; stroke-dasharray: 5.0,5.0;" x1="416.5" x2="416.5" y1="116.5938" y2="253.125"/><text fill="#000000" font-family="sans-serif" font-size="14" lengthAdjust="spacingAndGlyphs" textLength="32" x="8" y="113.292">User</text><ellipse cx="27" cy="43.2969" fill="#FEFECE" filter="url(#fhr44p2pa6zfy)" rx="8" ry="8" style="stroke: #A80036; stroke-width: 2.0;"/><path d="M27,51.2969 L27,78.2969 M14,59.2969 L40,59.2969 M27,78.2969 L14,93.2969 M27,78.2969 L40,93.2969 " fill="none" filter="url(#fhr44p2pa6zfy)" style="stroke: #A80036; stroke-width: 2.0;"/><text fill="#000000" font-family="sans-serif" font-size="14" lengthAdjust="spacingAndGlyphs" textLength="32" x="8" y="265.1201">User</text><ellipse cx="27" cy="278.4219" fill="#FEFECE" filter="url(#fhr44p2pa6zfy)" rx="8" ry="8" style="stroke: #A80036; stroke-width: 2.0;"/><path d="M27,286.4219 L27,313.4219 M14,294.4219 L40,294.4219 M27,313.4219 L14,328.4219 M27,313.4219 L40,328.4219 " fill="none" filter="url(#fhr44p2pa6zfy)" style="stroke: #A80036; stroke-width: 2.0;"/><text fill="#000000" font-family="sans-serif" font-size="14" lengthAdjust="spacingAndGlyphs" textLength="59" x="97.5" y="113.292">Web GUI</text><path d="M109.5,72.2969 L109.5,96.2969 M109.5,84.2969 L126.5,84.2969 " fill="none" filter="url(#fhr44p2pa6zfy)" style="stroke: #A80036; stroke-width: 2.0;"/><ellipse cx="138.5" cy="84.2969" fill="#FEFECE" filter="url(#fhr44p2pa6zfy)" rx="12" ry="12" style="stroke: #A80036; stroke-width: 2.0;"/><text fill="#000000" font-family="sans-serif" font-size="14" lengthAdjust="spacingAndGlyphs" textLength="59" x="97.5" y="265.1201">Web GUI</text><path d="M109.5,272.4219 L109.5,296.4219 M109.5,284.4219 L126.5,284.4219 " fill="none" filter="url(#fhr44p2pa6zfy)" style="stroke: #A80036; stroke-width: 2.0;"/><ellipse cx="138.5" cy="284.4219" fill="#FEFECE" filter="url(#fhr44p2pa6zfy)" rx="12" ry="12" style="stroke: #A80036; stroke-width: 2.0;"/><text fill="#000000" font-family="sans-serif" font-size="14" lengthAdjust="spacingAndGlyphs" textLength="98" x="172.5" y="113.292">Shopping Cart</text><ellipse cx="224.5" cy="84.2969" fill="#FEFECE" filter="url(#fhr44p2pa6zfy)" rx="12" ry="12" style="stroke: #A80036; stroke-width: 2.0;"/><polygon fill="#A80036" points="220.5,72.2969,226.5,67.2969,224.5,72.2969,226.5,77.2969,220.5,72.2969" style="stroke: #A80036; stroke-width: 1.0;"/><text fill="#000000" font-family="sans-serif" font-size="14" lengthAdjust="spacingAndGlyphs" textLength="98" x="172.5" y="265.1201">Shopping Cart</text><ellipse cx="224.5" cy="284.4219" fill="#FEFECE" filter="url(#fhr44p2pa6zfy)" rx="12" ry="12" style="stroke: #A80036; stroke-width: 2.0;"/><polygon fill="#A80036" points="220.5,272.4219,226.5,267.4219,224.5,272.4219,226.5,277.4219,220.5,272.4219" style="stroke: #A80036; stroke-width: 1.0;"/><text fill="#000000" font-family="sans-serif" font-size="14" lengthAdjust="spacingAndGlyphs" textLength="48" x="286.5" y="113.292">Widget</text><ellipse cx="313.5" cy="84.2969" fill="#FEFECE" filter="url(#fhr44p2pa6zfy)" rx="12" ry="12" style="stroke: #A80036; stroke-width: 2.0;"/><line style="stroke: #A80036; stroke-width: 2.0;" x1="301.5" x2="325.5" y1="98.2969" y2="98.2969"/><text fill="#000000" font-family="sans-serif" font-size="14" lengthAdjust="spacingAndGlyphs" textLength="48" x="286.5" y="265.1201">Widget</text><ellipse cx="313.5" cy="284.4219" fill="#FEFECE" filter="url(#fhr44p2pa6zfy)" rx="12" ry="12" style="stroke: #A80036; stroke-width: 2.0;"/><line style="stroke: #A80036; stroke-width: 2.0;" x1="301.5" x2="325.5" y1="298.4219" y2="298.4219"/><text fill="#000000" font-family="sans-serif" font-size="14" lengthAdjust="spacingAndGlyphs" textLength="56" x="385.5" y="113.292">Widgets</text><path d="M398.5,64.2969 C398.5,54.2969 416.5,54.2969 416.5,54.2969 C416.5,54.2969 434.5,54.2969 434.5,64.2969 L434.5,90.2969 C434.5,100.2969 416.5,100.2969 416.5,100.2969 C416.5,100.2969 398.5,100.2969 398.5,90.2969 L398.5,64.2969 " fill="#FEFECE" filter="url(#fhr44p2pa6zfy)" style="stroke: #000000; stroke-width: 1.5;"/><path d="M398.5,64.2969 C398.5,74.2969 416.5,74.2969 416.5,74.2969 C416.5,74.2969 434.5,74.2969 434.5,64.2969 " fill="none" style="stroke: #000000; stroke-width: 1.5;"/><text fill="#000000" font-family="sans-serif" font-size="14" lengthAdjust="spacingAndGlyphs" textLength="56" x="385.5" y="265.1201">Widgets</text><path d="M398.5,278.4219 C398.5,268.4219 416.5,268.4219 416.5,268.4219 C416.5,268.4219 434.5,268.4219 434.5,278.4219 L434.5,304.4219 C434.5,314.4219 416.5,314.4219 416.5,314.4219 C416.5,314.4219 398.5,314.4219 398.5,304.4219 L398.5,278.4219 " fill="#FEFECE" filter="url(#fhr44p2pa6zfy)" style="stroke: #000000; stroke-width: 1.5;"/><path d="M398.5,278.4219 C398.5,288.4219 416.5,288.4219 416.5,288.4219 C416.5,288.4219 434.5,288.4219 434.5,278.4219 " fill="none" style="stroke: #000000; stroke-width: 1.5;"/><polygon fill="#A80036" points="118,143.7266,128,147.7266,118,151.7266,122,147.7266" style="stroke: #A80036; stroke-width: 1.0;"/><line style="stroke: #A80036; stroke-width: 1.0;" x1="27" x2="124" y1="147.7266" y2="147.7266"/><text fill="#000000" font-family="sans-serif" font-size="13" lengthAdjust="spacingAndGlyphs" textLength="79" x="34" y="142.6606">To boundary</text><polygon fill="#A80036" points="212.5,172.8594,222.5,176.8594,212.5,180.8594,216.5,176.8594" style="stroke: #A80036; stroke-width: 1.0;"/><line style="stroke: #A80036; stroke-width: 1.0;" x1="130" x2="218.5" y1="176.8594" y2="176.8594"/><text fill="#000000" font-family="sans-serif" font-size="13" lengthAdjust="spacingAndGlyphs" textLength="63" x="137" y="171.7935">To control</text><polygon fill="#A80036" points="301.5,201.9922,311.5,205.9922,301.5,209.9922,305.5,205.9922" style="stroke: #A80036; stroke-width: 1.0;"/><line style="stroke: #A80036; stroke-width: 1.0;" x1="224.5" x2="307.5" y1="205.9922" y2="205.9922"/><text fill="#000000" font-family="sans-serif" font-size="13" lengthAdjust="spacingAndGlyphs" textLength="55" x="231.5" y="200.9263">To entity</text><polygon fill="#A80036" points="404.5,231.125,414.5,235.125,404.5,239.125,408.5,235.125" style="stroke: #A80036; stroke-width: 1.0;"/><line style="stroke: #A80036; stroke-width: 1.0;" x1="313.5" x2="410.5" y1="235.125" y2="235.125"/><text fill="#000000" font-family="sans-serif" font-size="13" lengthAdjust="spacingAndGlyphs" textLength="79" x="320.5" y="230.0591">To database</text></g></svg>